<svg version="1.1" viewBox="0 0 300 300" width="300" height="300" xmlns="http://www.w3.org/2000/svg">
    <defs>
        <clipPath id="clip-1">
            <rect x="0" y="0" transform="scale(0.29297,0.29297)" width="1024" height="1024" fill="none"/>
        </clipPath>
    </defs>
    <g clip-path="url(#clip-1)" fill="none" fill-rule="nonzero" stroke="none" stroke-width="1" stroke-linecap="butt" stroke-linejoin="miter" stroke-miterlimit="10" stroke-dasharray="" stroke-dashoffset="0" font-family="none" font-weight="none" font-size="none" text-anchor="none" style="mix-blend-mode: normal">
        <path d="M70.69805,0h16.51758l0.24961,0.092c2.21191,0.79352 6.44502,1.29392 8.90098,1.85587c3.91084,0.8948 7.37227,1.92928 11.09941,3.32768c13.51025,5.06915 23.37451,13.30781 33.21006,23.50799c2.04697,2.12291 7.34795,7.52555 9.56045,9.24322c5.91299,-6.75732 13.95762,-14.46372 20.69854,-20.29998c10.30986,-8.92641 24.49395,-14.68506 37.88496,-16.81369c1.0998,-0.17334 2.67305,-0.4737 3.6709,-0.91308h16.52197l0.24961,0.092c0.64395,0.23106 1.29727,0.42788 1.97197,0.5395c5.15654,0.8529 9.94658,1.90061 14.92031,3.54334c20.01709,6.79562 36.50859,21.2751 45.8373,40.24479c2.71729,5.47178 4.72119,11.26934 5.96338,17.25088c0.5127,2.48701 1.23926,7.54541 2.04492,9.69053v15.57129c-1.13965,3.23174 -1.65234,8.7665 -2.60449,12.30469c-3.21094,11.91299 -8.97539,22.79326 -17.1457,31.99834c-3.11016,3.4374 -6.33105,6.77227 -9.6583,9.9999c-0.88066,0.86982 -8.68154,8.1501 -8.07686,8.96074c1.90195,2.55088 5.45156,6.08203 7.80703,8.26406c13.13496,12.16846 23.52012,26.24824 27.48105,44.05342c0.63574,2.86084 1.16309,8.14365 2.19727,10.64443v15.57129l-0.09375,0.26953c-1.3418,3.92402 -1.85742,10.38311 -3.50684,15.47314c-6.48779,20.4167 -20.88984,37.38076 -39.98262,47.09707c-5.18467,2.6127 -9.63223,4.36465 -15.25752,5.83242c-2.23857,0.58301 -9.99727,1.81934 -11.55205,2.59863h-17.09268c-1.30049,-0.62402 -7.70977,-1.73145 -9.5666,-2.12988c-3.96445,-0.83203 -7.84687,-2.01562 -11.60156,-3.53613c-21.54141,-8.71201 -26.08125,-19.03359 -41.53008,-32.37598c-16.03652,16.78506 -31.02363,32.19434 -54.76729,36.34863c-1.91455,0.33398 -5.55586,0.94336 -7.23867,1.69336h-17.09268c-1.26211,-0.60352 -12.63428,-2.71875 -15.5417,-3.63281c-22.69482,-7.12148 -42.48703,-25.73408 -50.37454,-48.25078c-0.94251,-2.62793 -1.74375,-5.30449 -2.40025,-8.01826c-0.54077,-2.25352 -1.63626,-9.41719 -2.40118,-10.72266v-16.93975c1.11279,-2.25381 1.51714,-7.47305 2.2156,-10.22959c2.2687,-8.954 5.47963,-16.43877 10.42966,-24.20039c4.35044,-6.82119 8.70372,-11.2916 14.30684,-16.96787c2.22287,-2.25176 9.2231,-8.7832 10.54526,-11.09209c-0.75586,-2.0502 -15.8681,-16.06289 -18.45108,-19.3292c-2.72517,-3.44648 -4.83442,-6.03457 -7.42477,-10.23633c-4.16086,-6.77021 -7.2798,-14.12754 -9.25226,-21.82559c-0.64329,-2.51426 -1.4022,-9.32754 -2.36925,-10.97607v-16.93594c0.76887,-1.54629 1.93506,-8.64141 2.4416,-10.82432c1.21987,-5.21016 3.02971,-10.26445 5.39441,-15.06504c9.15422,-19.00711 25.5138,-33.5763 45.45032,-40.47609c3.24668,-1.09494 6.56455,-1.96559 9.93018,-2.60579c1.84922,-0.36896 5.61211,-0.98497 7.25273,-1.58554zM50.82158,137.54297c3.36709,-4.34941 8.74746,-8.52627 12.00381,-12.54844c-13.88057,-13.34121 -27.1998,-24.19658 -27.5959,-44.77764c-0.30176,-11.83711 4.15459,-23.30127 12.37207,-31.82695c8.10879,-8.32939 19.21113,-13.07109 30.83555,-13.16953c13.39863,-0.22119 23.66631,5.00537 33.06035,14.13076c0.47139,0.45703 0.9375,0.91934 1.39863,1.38691l59.91797,59.93613l17.51895,17.52803c2.28516,2.28516 7.27559,7.51553 9.60117,9.28213c3.72334,-4.3084 8.60742,-8.36836 12.1207,-12.50215c-7.57324,-6.93955 -16.45781,-16.29404 -23.84678,-23.68359l-44.44775,-44.46328l-13.38604,-13.39629c-6.12715,-6.14795 -11.46797,-11.94668 -18.93574,-16.57424c-10.2293,-6.34576 -22.11328,-9.509 -34.14346,-9.0881c-0.72686,0.03088 -2.3001,0.07471 -2.97773,0.20353c-17.72197,1.91042 -31.87383,8.54748 -43.24922,22.71896c-10.13314,12.69199 -14.84253,28.87324 -13.10282,45.0208c1.97487,18.01143 10.38902,30.46113 23.19091,42.45439c3.12422,2.92705 6.40049,6.66768 9.66533,9.36855zM237.07998,175.11094c3.4626,3.11338 6.5666,6.57158 9.86836,9.6665c10.3415,9.69463 17.02559,19.26563 17.80283,34.0043c0.54609,11.62471 -3.53877,22.9916 -11.35928,31.60957c-7.37959,8.14453 -18.91729,14.10557 -29.9373,14.39766c-13.67344,0.3624 -23.65986,-3.60293 -32.77998,-11.98828c-8.52539,-7.83867 -88.86299,-89.53828 -90.71982,-90.05742c-3.17754,3.19072 -9.54229,9.12598 -12.06914,12.31934c7.14902,6.35889 17.01563,16.8123 24.06182,23.85703l45.26689,45.27656c8.59922,8.6124 22.24746,23.50605 32.08037,29.44453c10.55127,6.3416 22.77949,9.32959 35.06631,8.56904c17.01357,-0.99932 31.60166,-8.36309 42.90088,-21.08672c10.54365,-12.02988 15.93076,-27.72539 14.99678,-43.69453c-0.77344,-13.94824 -6.30557,-27.20977 -15.67324,-37.57295c-3.46816,-3.7752 -13.62686,-14.26113 -17.42432,-17.3543c-3.4459,3.93896 -9.19746,8.77705 -12.08115,12.60967zM224.37451,187.42061c-11.81396,12.39932 -25.0248,24.72451 -37.06992,37.07432c6.54639,6.87217 16.08604,17.69121 24.57217,21.10693c7.35381,2.19961 14.44189,2.1334 21.32051,-1.58672c6.21035,-3.30703 10.84307,-8.95693 12.86924,-15.69492c1.95205,-6.65537 1.19062,-13.81289 -2.11758,-19.90898c-0.93018,-1.66201 -2.0168,-3.23174 -3.24521,-4.6875c-1.6541,-1.96758 -14.61035,-15.13477 -16.3292,-16.30312zM219.94834,108.08086c1.44873,1.40244 3.25986,3.25137 4.76191,4.5293c9.9334,-10.53398 22.87236,-18.90439 22.40391,-34.21348c-0.18809,-7.02187 -3.18105,-13.67549 -8.31006,-18.47461c-5.20781,-4.85391 -11.55967,-7.09424 -18.63867,-6.90645c-0.43154,0.01318 -0.86133,0.05479 -1.2873,0.12451c-10.72793,1.01777 -14.7041,5.29482 -22.15957,12.77285c-3.13711,3.14648 -6.3873,6.35596 -9.44033,9.62344c10.83867,10.30371 22.03799,21.90996 32.67012,32.54443zM187.06055,150.029c-2.08154,-2.40791 -5.22656,-5.39531 -7.53398,-7.70596l-13.10273,-13.10918c-2.5626,-2.56553 -14.88955,-15.16289 -16.64502,-16.19443c-8.29219,8.14395 -16.5334,16.33975 -24.72305,24.58682c-2.94902,2.95078 -9.98203,9.61113 -12.2666,12.50449l23.39473,23.38682c2.2541,2.25557 11.91768,12.30703 14.11494,13.42354l24.31992,-24.34102c3.79307,-3.79424 8.98213,-8.6918 12.4418,-12.55107zM112.59229,224.43369l-24.67178,-24.67559c-1.71621,-1.71738 -11.43311,-11.92383 -12.80684,-12.07412c-3.28242,3.16934 -6.5376,6.3665 -9.76582,9.59092c-7.11387,7.10859 -12.34746,12.55078 -12.51152,23.37041c-0.07969,6.92725 2.59541,13.60225 7.43701,18.55723c4.86943,5.03818 11.57402,7.88613 18.58066,7.89258c2.84619,0.02842 7.00342,-0.51768 9.58799,-1.72852c7.53018,-2.94756 12.53525,-9.32666 18.24229,-14.83066c1.23545,-1.1915 4.9708,-4.88701 5.90801,-6.10225zM75.68525,112.60635c2.06104,-2.42139 4.38193,-4.68721 6.62549,-6.94658c9.55254,-9.55225 20.52832,-21.09287 30.28945,-30.14912c-3.22881,-3.34863 -6.49336,-6.66299 -9.79219,-9.94248c-7.03154,-7.04795 -12.19453,-12.3126 -22.95059,-12.54258c-0.9668,-0.0208 -1.80176,-0.04863 -2.77617,0.11484c-7.48682,0.71514 -13.41006,3.32988 -18.29502,9.271c-4.42881,5.4416 -6.52236,12.41543 -5.82334,19.39658c1.02832,10.27852 7.24629,15.83262 14.16885,22.68223c2.1832,2.16006 5.57813,5.7249 7.87119,7.58408c0.22412,0.18135 0.45176,0.35889 0.68232,0.53203zM216.11426,17.98025c-19.7042,2.12552 -30.42861,8.68617 -44.04785,22.90734c-2.85908,2.98535 -7.16221,6.84844 -9.6876,9.96797c4.16602,3.15557 8.27783,8.48438 12.6668,11.90684c13.86416,-14.09678 23.81602,-27.32695 45.3457,-27.55137c11.72168,-0.14092 23.01064,4.42178 31.34268,12.66768c8.29014,8.15625 12.98965,19.2791 13.05879,30.9085c0.06504,15.2001 -6.08643,24.62461 -16.32363,34.89375l-60.404,60.40459c-8.44951,8.44658 -17.44658,17.16533 -25.67256,25.77041c3.65859,3.22676 9.28359,9.62549 12.70635,12.15498c2.72549,-3.21592 6.56367,-6.88975 9.60879,-9.93867l15.1084,-15.10371l46.90225,-46.90254c8.11436,-8.11348 21.51943,-20.35078 27.03516,-29.59893c6.4418,-10.85596 9.37969,-23.43428 8.41406,-36.02051c-1.2498,-16.529 -9.13506,-31.84893 -21.86074,-42.47109c-12.17783,-10.2399 -28.08047,-15.36366 -44.08125,-14.01363c-0.03691,0.00615 -0.07412,0.01228 -0.11133,0.0184zM137.54414,100.21787c-2.56172,-2.37158 -10.73027,-10.9459 -12.69785,-12.20684c-2.52627,2.8834 -6.046,6.2168 -8.82275,8.98389l-14.74131,14.70381l-46.38896,46.40215c-8.77998,8.77559 -23.00977,21.71631 -28.94748,31.83311c-6.17435,10.69395 -9.02314,22.98457 -8.183,35.3042c1.14434,16.20615 8.66221,31.29902 20.90821,41.97539c12.30791,10.78389 28.43379,16.16836 44.75186,14.94258c21.63662,-1.50674 34.1915,-12.03193 48.29238,-27.08174c0.01406,-0.01641 0.02842,-0.03311 0.04277,-0.0498c1.50732,-1.4915 4.45254,-4.2457 5.69473,-5.78848c-2.62119,-2.56992 -10.08281,-10.32539 -12.5083,-12.06416c-13.48477,13.75166 -24.30469,27.4459 -45.06182,27.67705c-11.80342,0.21094 -23.1958,-4.33506 -31.61191,-12.61406c-8.31973,-8.16738 -13.01924,-19.32803 -13.04795,-30.98672c-0.07969,-8.80166 2.47705,-17.42578 7.34121,-24.76172c3.33545,-5.09941 8.98916,-10.32627 13.40186,-14.73779l17.18848,-17.1876l62.08682,-62.05752z" fill="#000000"/>
    </g>
</svg>