<svg version="1.1" viewBox="0 0 300 300" width="300" height="300" xmlns="http://www.w3.org/2000/svg">
    <defs>
        <clipPath id="clip-1">
            <rect x="0" y="0" transform="scale(0.29297,0.29297)" width="1024" height="1024" fill="none"/>
        </clipPath>
    </defs>
    <g clip-path="url(#clip-1)" fill="none" fill-rule="nonzero" stroke="none" stroke-width="1" stroke-linecap="butt" stroke-linejoin="miter" stroke-miterlimit="10" stroke-dasharray="" stroke-dashoffset="0" font-family="none" font-weight="none" font-size="none" text-anchor="none" style="mix-blend-mode: normal">
        <path d="M77.44131,0h3.34863c1.83662,0.65869 6.19746,0.58692 8.29482,0.81617c20.43516,2.23369 37.84395,13.17306 51.5792,28.03823c2.9042,3.14335 6.36328,6.17704 9.30029,9.45126c16.39717,-16.46669 26.70879,-28.95709 50.51455,-35.4868c3.27393,-0.90813 6.6126,-1.56475 9.98672,-1.96412c1.74551,-0.19528 7.61104,-0.43275 8.77295,-0.85475h3.34834c2.07363,0.77595 6.21006,0.38588 8.54473,0.73553c2.70527,0.40512 5.20957,0.87386 7.87295,1.51879c22.69717,5.33878 41.87578,20.43282 52.39893,41.23952c3.97061,7.75195 6.52822,16.08545 7.72646,24.72187c0.29883,2.13779 0.26953,7.74141 0.87012,9.23525v3.3126c-0.62109,1.96934 -0.51855,5.03906 -0.71191,7.15254c-0.27246,2.95723 -0.56543,5.85732 -1.31836,8.74629c-4.24805,18.04424 -13.44961,31.40625 -26.71699,43.88848c-3.09756,2.91445 -6.31699,6.51592 -9.55898,9.41602c16.46016,16.19385 29.8585,27.95566 35.81895,51.55283c0.81738,3.24639 1.23047,5.49346 1.64355,8.84033c0.25488,2.0502 0.25488,7.41328 0.84375,8.88809v3.3123c-0.67969,2.15889 -0.52441,5.9666 -0.79395,8.30303c-4.10742,35.33789 -33.05098,64.09453 -68.3335,68.40117c-2.40381,0.29297 -6.31377,0.00293 -8.28838,0.73535h-3.35303c-1.546,-0.58008 -6.12949,-0.63281 -8.03115,-0.81152c-26.46768,-2.49609 -44.00654,-19.0207 -61.19883,-37.59844c-17.4835,18.9917 -34.38457,34.75957 -61.11563,37.6248c-2.21279,0.2373 -6.21211,0.1084 -8.09824,0.78516h-3.35303c-1.60488,-0.6123 -6.38027,-0.47754 -8.75654,-0.80859c-10.03594,-1.32715 -19.71885,-4.59082 -28.51377,-9.6041c-18.98918,-10.79385 -32.67929,-28.94912 -37.83473,-50.17471c-0.69073,-2.96514 -1.17718,-5.83125 -1.54375,-8.84707c-0.29747,-2.44717 -0.08935,-5.67129 -0.78548,-7.97227v-3.57012c0.42058,-1.06055 0.62759,-6.46846 0.81067,-8.13428c0.33118,-3.09873 0.88945,-6.16904 1.67029,-9.18604c4.70202,-17.78906 13.00218,-29.52832 26.02429,-41.9751c3.27337,-3.12891 6.39114,-6.55811 9.81331,-9.61699c-8.60332,-9.19775 -18.38499,-17.15537 -25.30772,-27.82793c-6.62657,-10.21582 -10.83081,-21.41689 -12.22528,-33.51416c-0.27762,-2.4082 -0.10643,-5.72344 -0.78555,-7.97227v-3.57012c0.36448,-0.83936 0.7293,-7.71943 0.97429,-9.5124c1.43676,-10.04443 4.82438,-19.71094 9.97207,-28.45518c10.92281,-18.6929 29.03596,-32.08649 50.1092,-37.05256c4.27705,-0.97541 8.26729,-1.57206 12.6375,-1.73188c1.25068,-0.04574 2.54355,-0.12828 3.74824,-0.47425zM50.7835,137.71904c3.63164,-4.25859 8.55703,-8.62031 12.46084,-12.76611c-3.39727,-2.96484 -6.47871,-6.33164 -9.7207,-9.45439c-6.68848,-6.44268 -12.44062,-12.41982 -15.52998,-21.40225c-5.23184,-15.21064 -2.43457,-31.8085 8.23975,-43.98867c7.54336,-8.56963 18.16963,-13.8082 29.56055,-14.57285c15.32578,-0.93984 25.93389,4.13965 36.51885,14.804l58.93008,58.94648l18.68877,18.67969c2.82803,2.8251 7.4042,7.10596 9.83994,9.96357c4.13936,-4.23369 8.31182,-8.43457 12.51768,-12.60205c-19.98076,-20.64873 -41.47998,-41.53564 -61.84102,-61.89902l-18.91172,-18.92813c-5.89482,-5.90273 -12.06357,-12.6542 -19.01162,-17.13598c-9.45732,-6.11558 -20.42783,-9.48378 -31.68779,-9.72894c-1.57793,-0.03665 -3.15703,-0.0138 -4.7335,0.06858c-35.16797,2.13281 -60.96721,31.13344 -58.23138,66.54516c2.00651,25.97168 16.08196,36.53643 32.91126,53.4709zM87.63193,174.68877c7.78506,7.21816 16.46338,16.33535 24.04775,23.9209l44.81133,44.82539l14.32617,14.33701c5.79229,5.80488 10.38428,11.00303 17.46562,15.37354c42.09141,25.97842 96.51094,-5.52891 94.00723,-55.19678c-0.67969,-13.48154 -5.66807,-27.73242 -15.12305,-37.66348c-5.27754,-5.65605 -12.41982,-12.67441 -18.05039,-18.0876c-2.72578,3.63691 -9.02725,9.41895 -12.42363,12.90498c2.64639,1.93242 5.925,5.62998 8.40732,7.99307c9.44121,8.9877 16.87031,17.01621 18.98848,30.56221c1.91191,11.64609 -0.90615,23.57373 -7.82813,33.13301c-6.76992,9.29648 -16.96143,15.51592 -28.3248,17.28516c-11.28779,1.7165 -23.50371,-0.74121 -32.63818,-7.679c-4.38984,-3.33428 -7.61807,-6.75352 -11.48203,-10.61602l-13.08369,-13.08428c-7.51377,-7.5167 -70.03301,-70.30225 -70.72295,-70.47861c-3.61816,3.89707 -8.45654,8.79697 -12.37705,12.47051zM82.01104,106.25156c10.14609,-10.14551 20.95635,-20.62178 30.87188,-30.91465c-3.20625,-3.30234 -6.44004,-6.57744 -9.70137,-9.82529c-6.82383,-6.80039 -14.84414,-13.97432 -25.37959,-12.65391c-2.64199,0.21914 -4.64766,0.42861 -7.14639,1.30107c-11.68125,4.07959 -18.75645,14.99326 -17.71289,27.31641c0.85371,10.08047 6.68408,15.95098 13.58555,22.71768c2.90361,2.85 5.83301,5.86758 8.81221,8.67539c2.2374,-2.1917 4.46074,-4.39746 6.67061,-6.6167zM137.75889,249.23906c-3.90586,-3.34307 -9.06885,-8.81162 -12.83789,-12.56748c-2.29863,3.01055 -5.79785,6.10459 -8.43604,8.88076c-9.09521,9.571 -17.32207,16.7833 -31.01865,18.63398c-11.74658,1.58701 -23.40615,-1.17012 -32.90186,-8.44805c-9.15059,-6.93164 -15.16699,-17.21953 -16.7209,-28.59346c-1.52988,-11.8752 1.2501,-23.78877 8.73926,-33.17373c3.36475,-4.2167 8.23828,-8.79346 12.14619,-12.7002l20.11055,-20.0915c20.21045,-20.18467 40.62012,-41.08184 61.04883,-60.96709c-1.37051,-1.36553 -11.78262,-12.07734 -12.87158,-12.4582c-6.05947,7.00225 -17.15186,17.45215 -24.00791,24.30615l-45.46465,45.45059l-13.13906,13.13555c-6.84463,6.84258 -13.52906,12.87539 -17.90581,21.71279c-21.88683,44.19199 11.09956,93.55049 60.31597,89.74863c12.16377,-1.01514 23.72813,-5.71729 33.14854,-13.47832c4.31953,-3.60879 10.16602,-9.81621 14.26025,-13.94297zM217.89023,17.70431c-28.03359,1.66491 -37.72969,15.52919 -55.65703,33.14452c2.78848,2.0168 9.93516,9.52266 12.76523,12.38555c5.32031,-5.85674 14.07979,-15.02754 20.27783,-19.65293c16.32275,-12.18105 40.21523,-10.53604 55.27881,3.25254c8.48584,7.75781 13.52695,18.57979 14.00625,30.06738c0.52031,11.94229 -3.43242,23.63613 -11.74365,32.20576c-7.1332,7.35557 -14.60537,14.67686 -21.86162,21.93223l-42.72363,42.7166l-26.19053,26.16533c2.96221,2.38066 9.75762,9.4957 12.69463,12.41396c20.78438,-21.63926 43.45283,-43.5999 64.74023,-64.8832l16.37021,-16.36875c6.56719,-6.56748 14.26436,-13.48447 18.66943,-21.56191c5.51836,-10.11855 8.06748,-20.38447 7.82021,-31.85566c-0.20947,-16.39014 -7.09102,-31.98662 -19.05645,-43.18975c-12.12832,-11.55311 -27.45293,-17.22577 -44.13926,-16.83015c-0.41719,0.00894 -0.83437,0.02845 -1.25068,0.05848zM212.33525,245.82568c6.89648,2.1583 14.36045,1.7959 20.81279,-1.58057c6.14883,-3.25752 10.77451,-8.79697 12.88271,-15.42832c2.09707,-6.68789 1.46279,-13.93389 -1.76484,-20.15537c-0.9624,-1.79941 -2.10557,-3.49629 -3.41221,-5.06367c-1.57939,-1.91689 -14.75742,-15.53555 -16.43291,-16.48916c-3.26016,3.81182 -8.85234,9.11572 -12.51562,12.77813l-24.82383,24.81299c6.77373,6.80303 16.60371,18.19482 25.25391,21.12598zM224.69297,112.90635l9.70693,-9.6709c7.28848,-7.28965 12.79453,-13.15313 12.81885,-24.13359c0.05449,-7.00078 -2.72021,-13.72734 -7.69453,-18.65391c-4.9418,-5.00859 -11.71729,-7.77803 -18.75264,-7.66436c-0.39258,0.00527 -0.78457,0.02988 -1.1748,0.07354c-10.81875,0.89443 -15.38818,5.30449 -22.8501,12.76611l-9.64893,9.71777l33.18955,33.16348zM88.26152,245.61416c7.89668,-3.20918 12.21943,-8.56611 18.19629,-14.42813c1.79619,-1.76162 4.81318,-4.68223 6.38994,-6.52148c-9.95771,-10.4499 -20.54766,-20.45596 -30.64453,-30.78633c-1.11357,-1.13936 -5.80342,-6.06211 -6.96094,-6.7626l-9.43916,9.45967c-7.33008,7.32832 -13.16484,13.45342 -12.94482,24.421c0.3835,19.0998 17.75479,30.26982 35.40322,24.61787zM149.88662,112.37051c-11.10469,11.59482 -22.78682,22.75049 -34.05791,34.1918c-1.08633,1.10303 -2.37363,2.39385 -3.52441,3.41309l37.74814,37.69131c11.50107,-12.08525 25.55918,-25.96758 37.59111,-37.62656l-28.09072,-28.14463c-1.89814,-1.89932 -8.01533,-8.51748 -9.66621,-9.525z" fill="#ffffff"/>
    </g>
</svg>