<svg id="svg" version="1.1" viewBox="0 0 300 300" width="300" height="300" xmlns="http://www.w3.org/2000/svg">
    <defs>
        <clipPath id="clip-1">
            <rect x="0" y="0" transform="scale(0.29297,0.29297)" width="1024" height="1024" fill="none"/>
        </clipPath>
    </defs>
    <g clip-path="url(#clip-1)" fill="none" fill-rule="nonzero" stroke="none" stroke-width="1" stroke-linecap="butt" stroke-linejoin="miter" stroke-miterlimit="10" stroke-dasharray="" stroke-dashoffset="0" font-family="none" font-weight="none" font-size="none" text-anchor="none" style="mix-blend-mode: normal">
        <path d="M64.49004,0h11.83916c2.87959,0.73597 6.16494,0.99311 9.24287,1.66475c7.81172,1.77816 15.27539,4.8366 22.08867,9.0514c7.29521,4.4303 12.82588,10.32047 18.779,16.2791l13.85303,13.87799l50.58721,50.60098l16.59551,16.59697c2.4041,2.4041 5.90479,6.13916 8.36104,8.32588c-8.25967,7.47246 -16.99424,17.06104 -25.17686,24.95654c-4.98428,-5.83857 -14.50752,-14.77324 -20.21924,-20.48525l-38.896,-38.88984l-26.36865,-26.38242c-10.23516,-10.24365 -16.63037,-19.01953 -32.21309,-20.20664c-9.28154,-0.7207 -18.46816,2.28281 -25.53105,8.34697c-7.28818,6.32607 -11.36631,14.74102 -12.01904,24.36416c-0.6791,9.19248 2.3792,18.27041 8.48262,25.17803c5.37744,6.10781 13.25273,13.10391 19.09893,19.3207c-7.93447,7.96963 -17.14043,16.79883 -24.81387,24.92109c-16.73525,-16.70273 -33.72164,-30.61289 -37.16245,-55.57119c-0.1992,-1.44492 -0.55487,-4.37813 -1.01782,-5.65313v-12.03018c0.60717,-2.44805 1.00063,-5.92529 1.5803,-8.62617c1.74097,-8.27578 4.98194,-16.16309 9.56271,-23.27168c9.19547,-14.34665 23.28199,-24.87146 39.64664,-29.62252c5.27549,-1.50596 8.79961,-1.67725 13.70039,-2.74555z" fill="#FFFFFF"/>
        <path d="M112.8958,87.79131c8.05811,8.43838 16.96289,16.59668 24.82178,25.12617c-7.32158,6.87305 -14.95518,14.8333 -22.13555,22.01631l-40.78857,40.80029l-20.77061,20.73516c-3.57832,3.571 -7.5416,7.21582 -10.79004,11.05371c-11.28809,13.33711 -10.23369,33.69053 1.5917,46.21816c6.25693,6.74678 14.98213,10.66816 24.18164,10.86709c9.87217,0.28184 18.41484,-2.79639 25.54336,-9.68379c6.06885,-5.86348 11.92178,-12.09785 17.96807,-17.96572l24.97324,24.95303c-14.35898,14.43281 -26.52949,29.30479 -46.82842,35.09414c-5.37129,1.53223 -9.08232,1.9043 -14.36045,2.99414h-11.79639c-2.55762,-0.63281 -5.81367,-0.94922 -8.54443,-1.49707c-6.76289,-1.37109 -13.27559,-3.77344 -19.31133,-7.11738c-15.58576,-8.53887 -28.20876,-23.46006 -33.39138,-40.51992c-0.96137,-3.26455 -1.73444,-6.58184 -2.31543,-9.93486c-0.35815,-2.00391 -0.35272,-3.24404 -0.943,-5.26143v-12.03135c2.22704,-11.13486 3.27926,-18.54404 9.29265,-28.86562c6.1582,-10.57002 14.05122,-17.56992 22.52845,-26.04111l22.15313,-22.12734l37.87939,-37.88994c6.86895,-6.87041 14.0168,-14.27578 21.04219,-20.92266z" fill="#FFFFFF"/>
        <path d="M223.86592,0h11.83359c4.91836,1.22464 8.84268,1.35184 14.44775,3.01951c16.69189,5.10653 30.89941,16.2174 39.87861,31.18664c4.10889,6.78486 7.00049,14.23623 8.54443,22.01689c0.30176,1.50645 1.09863,7.43467 1.42969,8.33438v11.54648c-0.62988,2.40967 -0.9668,5.93994 -1.54102,8.69033c-1.69336,8.12314 -4.79883,15.88535 -9.18076,22.93213c-5.20137,8.32324 -13.23516,15.6835 -20.19697,22.64268l-20.81191,20.79492c-20.06279,20.06104 -40.78711,41.45098 -61.13936,61.05439c-7.62422,-8.2582 -17.65166,-17.00771 -24.75264,-25.16016c6.00176,-5.50107 13.53281,-13.5 19.38809,-19.35674l38.9748,-38.9792l23.39355,-23.371c10.13525,-10.13115 19.96582,-17.5251 20.46475,-33.06973c0.31289,-9.74795 -2.16709,-18.0665 -8.77734,-25.39102c-6.25371,-7.00488 -15.075,-11.18232 -24.45674,-11.58193c-21.12363,-1.02803 -29.83125,14.84443 -43.95234,27.65684l-24.81709,-24.87012c3.63223,-3.84902 7.64063,-7.60459 11.19932,-11.34422c10.72822,-11.27394 20.44834,-19.16203 35.70176,-23.81007c5.54766,-1.69046 9.17607,-1.80527 14.36982,-2.94103z" fill="#FFFFFF"/>
        <path d="M112.84512,162.28623l66.43506,66.46494l17.88105,17.90977c4.00459,4.00957 8.72959,9.32227 13.30723,12.33076c22.82314,14.99912 54.15088,-1.14785 54.18369,-28.80908c0.01758,-14.5957 -5.56201,-20.72783 -15.09609,-30.21709c-4.2252,-4.14521 -8.39854,-8.34287 -12.51943,-12.59209l24.82119,-24.87715c16.95205,17.01504 33.8502,30.51533 37.23691,55.97314c0.24316,1.84072 0.39844,3.67529 0.90527,5.46182v11.54531c-1.16309,4.846 -1.26855,8.65342 -2.85645,14.146c-4.98369,16.76836 -16.02568,31.08369 -30.97822,40.16279c-8.98389,5.48613 -18.29268,8.3748 -28.60928,9.87773c-0.58096,0.08496 -1.33359,0.18164 -1.8832,0.33691h-11.79316c-2.04346,-0.5625 -6.41895,-1.05762 -8.95166,-1.60254c-8.70498,-1.87207 -16.5,-5.1709 -23.96279,-10.02393c-7.28701,-4.73789 -14.11729,-12.14414 -20.31621,-18.34922l-21.87803,-21.90498l-38.86523,-38.86025c-7.21699,-7.21494 -15.0709,-14.80107 -22.04941,-22.19766c8.35752,-7.86387 16.76865,-16.66201 24.98877,-24.7752z" fill="#FFFFFF"/>
    </g>
</svg>